<svg xmlns="http://www.w3.org/2000/svg" width="640" height="640" style="background:#09bb07" viewBox="0 0 640 640">
  <g fill="#FFF" fill-rule="evenodd">
    <path fill-rule="nonzero" d="M298.436727,108.637358 C303.568364,108.637358 308.539636,108.877706 313.510909,109.518634 C300.200727,46.7076545 232.767818,0 156.114,0 C70.1590909,0 0,58.3244811 0,132.511939 C0,175.293908 23.4932727,210.625084 62.4616364,237.944655 L46.9865455,284.892658 L101.510182,257.573086 C121.074545,261.418657 136.629818,265.344343 156.194182,265.344343 C161.165455,265.344343 165.896182,265.103995 170.867455,264.703414 C167.660182,254.368445 165.896182,243.392546 165.896182,232.016068 C165.816,163.997545 224.348727,108.637358 298.436727,108.637358 Z M214.646727,66.2559696 C226.273091,66.2559696 234.050727,74.0272261 234.050727,85.8042848 C234.050727,97.4211114 226.273091,105.192368 214.646727,105.192368 C202.779818,105.192368 191.153455,97.4211114 191.153455,85.8042848 C191.233636,74.0272261 202.86,66.2559696 214.646727,66.2559696 Z M105.278727,105.192368 C93.6523636,105.192368 81.7854545,97.4211114 81.7854545,85.8042848 C81.7854545,73.94711 93.6523636,66.2559696 105.278727,66.2559696 C117.145636,66.2559696 124.843091,74.0272261 124.843091,85.8042848 C124.843091,97.5012274 117.145636,105.192368 105.278727,105.192368 Z M441,230.253515 C441,167.843115 378.538364,117.049543 308.379273,117.049543 C234.050727,117.049543 175.758545,167.843115 175.758545,230.253515 C175.758545,292.663914 234.130909,343.457487 308.379273,343.457487 C323.854364,343.457487 339.57,339.371569 355.365818,335.525999 L398.182909,359 L386.316,320.063602 C417.747273,296.509484 441,265.344343 441,230.253515 Z M265.321636,210.625084 C257.544,210.625084 249.846545,202.853827 249.846545,194.922339 C249.846545,187.151082 257.624182,179.459942 265.321636,179.459942 C277.188545,179.459942 284.886,187.231198 284.886,194.922339 C284.886,202.933943 277.108364,210.625084 265.321636,210.625084 Z M351.196364,210.625084 C343.418727,210.625084 335.721273,202.853827 335.721273,194.922339 C335.721273,187.151082 343.498909,179.459942 351.196364,179.459942 C362.822727,179.459942 370.760727,187.231198 370.760727,194.922339 C370.840909,202.933943 362.822727,210.625084 351.196364,210.625084 Z" transform="translate(199 230)"/>
    <path d="M192.764774,153.872576 L147.202274,153.872576 L147.202274,303.638201 C147.202274,312.263244 145.280418,318.661617 141.436649,322.833513 C137.592879,327.005409 132.624179,329.091326 126.530399,329.091326 C120.342868,329.091326 115.303856,326.981972 111.413211,322.763201 C107.522567,318.54443 105.577274,312.169493 105.577274,303.638201 L105.577274,153.872576 L60.0147737,153.872576 C52.8897381,153.872576 47.592916,152.302279 44.1241487,149.161638 C40.6553813,146.020997 38.9210237,141.872601 38.9210237,136.716326 C38.9210237,131.372549 40.7256931,127.153841 44.3350862,124.060076 C47.9444792,120.96631 53.1709895,119.419451 60.0147737,119.419451 L192.764774,119.419451 C199.98356,119.419451 205.350694,121.013185 208.866336,124.200701 C212.381979,127.388217 214.139774,131.56005 214.139774,136.716326 C214.139774,141.872601 212.358542,146.020997 208.796024,149.161638 C205.233506,152.302279 199.889809,153.872576 192.764774,153.872576 Z" transform="rotate(34 126.53 224.255)"/>
  </g>
</svg>
